<svg xmlns="http://www.w3.org/2000/svg" width="480" height="300" viewBox="0 0 480 300"><rect width="100%" height="100%" fill="#DDDDDD"/><path fill="#999999" d="M103.905 155.695h14.08v-15.14q0-2.14.29-4.73zm20.96 0h5.83v4.58q0 .64-.42 1.1t-1.18.46h-4.23v11.3h-6.88v-11.3h-19.52q-.8 0-1.41-.49-.6-.5-.76-1.23l-.84-4 21.92-29.28h7.49zm26.02 11.78q1.95 0 3.42-.56t2.48-1.56q1.01-.99 1.52-2.36.51-1.38.51-2.98 0-3.81-2.11-5.76t-5.82-1.95-5.83 1.95q-2.11 1.95-2.11 5.76 0 1.6.51 2.98.52 1.37 1.52 2.36 1.01 1 2.48 1.56 1.48.56 3.43.56m0-35.17q-1.76 0-3.04.54-1.28.55-2.13 1.46t-1.25 2.09q-.4 1.19-.4 2.5 0 1.38.34 2.67.33 1.3 1.13 2.31.8 1 2.12 1.61 1.31.61 3.23.61t3.23-.61 2.11-1.61q.8-1.01 1.14-2.31.33-1.29.33-2.67 0-1.31-.41-2.5-.42-1.18-1.25-2.09t-2.11-1.46q-1.28-.54-3.04-.54m7.81 16.7q4.22 1.38 6.24 4.21 2.01 2.83 2.01 6.93 0 3.07-1.17 5.57-1.16 2.49-3.28 4.25-2.11 1.76-5.07 2.72t-6.54.96q-3.59 0-6.55-.96t-5.07-2.72-3.28-4.25q-1.17-2.5-1.17-5.57 0-4.1 2.02-6.93t6.24-4.21q-3.36-1.41-5.04-4t-1.68-6.24q0-2.62 1.07-4.89 1.07-2.28 2.99-3.96t4.6-2.62q2.67-.94 5.87-.94t5.87.94 4.59 2.62 2.99 3.96q1.08 2.27 1.08 4.89 0 3.65-1.68 6.24t-5.04 4m46.27.99q0 6.05-1.3 10.52-1.29 4.46-3.58 7.37t-5.41 4.34q-3.12 1.42-6.74 1.42-3.61 0-6.7-1.42-3.09-1.43-5.36-4.34t-3.55-7.37q-1.28-4.47-1.28-10.52 0-6.08 1.28-10.52 1.28-4.45 3.55-7.36 2.27-2.92 5.36-4.34t6.7-1.42q3.62 0 6.74 1.42t5.41 4.34q2.29 2.91 3.58 7.36 1.3 4.44 1.3 10.52m-8.16 0q0-5.02-.74-8.32-.73-3.29-1.97-5.24-1.23-1.96-2.83-2.74t-3.33-.78q-1.69 0-3.28.78-1.58.78-2.8 2.74-1.21 1.95-1.93 5.24-.72 3.3-.72 8.32 0 5.03.72 8.32.72 3.3 1.93 5.25 1.22 1.95 2.8 2.74 1.59.78 3.28.78 1.73 0 3.33-.78 1.6-.79 2.83-2.74 1.24-1.95 1.97-5.25.74-3.29.74-8.32m58.97 12.55-4.19 4.13-10.85-10.85-10.94 10.91-4.19-4.13 10.94-10.97-10.43-10.44 4.16-4.16 10.43 10.44 10.37-10.37 4.22 4.16-10.4 10.4zm26.63-22.05-4.16-.74q.48-3.32 1.85-5.84 1.38-2.51 3.44-4.19 2.07-1.68 4.74-2.53 2.67-.84 5.74-.84 3.2 0 5.78.91t4.4 2.53q1.82 1.61 2.8 3.79.98 2.17.98 4.7 0 2.21-.5 3.89t-1.42 2.93q-.93 1.25-2.31 2.11-1.37.86-3.1 1.44 4.16 1.31 6.21 4 2.04 2.69 2.04 6.75 0 3.46-1.28 6.11-1.28 2.66-3.45 4.47-2.18 1.81-5.04 2.73-2.87.93-6.07.93-3.48 0-6.08-.8-2.59-.8-4.51-2.37-1.92-1.56-3.26-3.84-1.35-2.27-2.31-5.24l3.49-1.44q1.38-.58 2.58-.31t1.74 1.3q.58 1.12 1.27 2.21.68 1.08 1.64 1.93t2.26 1.38 3.09.53q2.01 0 3.52-.66 1.5-.66 2.51-1.71 1.01-1.06 1.5-2.35.5-1.3.5-2.61 0-1.67-.35-3.03t-1.47-2.32-3.22-1.5-5.62-.54v-5.64q2.92-.03 4.84-.54t3.05-1.42q1.14-.92 1.59-2.2.44-1.28.44-2.81 0-3.27-1.82-4.96-1.82-1.7-4.86-1.7-1.41 0-2.6.4-1.18.4-2.12 1.12-.95.72-1.59 1.68t-.96 2.11q-.54 1.48-1.42 1.96t-2.48.22m65.02 9.5q0 6.05-1.29 10.52-1.3 4.46-3.59 7.37t-5.41 4.34q-3.12 1.42-6.73 1.42-3.62 0-6.71-1.42-3.08-1.43-5.36-4.34-2.27-2.91-3.55-7.37-1.28-4.47-1.28-10.52 0-6.08 1.28-10.52 1.28-4.45 3.55-7.36 2.28-2.92 5.36-4.34 3.09-1.42 6.71-1.42 3.61 0 6.73 1.42t5.41 4.34q2.29 2.91 3.59 7.36 1.29 4.44 1.29 10.52m-8.16 0q0-5.02-.73-8.32-.74-3.29-1.97-5.24-1.23-1.96-2.83-2.74t-3.33-.78q-1.7 0-3.28.78-1.59.78-2.8 2.74-1.22 1.95-1.94 5.24-.72 3.3-.72 8.32 0 5.03.72 8.32.72 3.3 1.94 5.25 1.21 1.95 2.8 2.74 1.58.78 3.28.78 1.73 0 3.33-.78 1.6-.79 2.83-2.74t1.97-5.25q.73-3.29.73-8.32m45.28 0q0 6.05-1.29 10.52-1.3 4.46-3.59 7.37t-5.41 4.34q-3.12 1.42-6.73 1.42-3.62 0-6.71-1.42-3.08-1.43-5.36-4.34-2.27-2.91-3.55-7.37-1.28-4.47-1.28-10.52 0-6.08 1.28-10.52 1.28-4.45 3.55-7.36 2.28-2.92 5.36-4.34 3.09-1.42 6.71-1.42 3.61 0 6.73 1.42t5.41 4.34q2.29 2.91 3.59 7.36 1.29 4.44 1.29 10.52m-8.16 0q0-5.02-.73-8.32-.74-3.29-1.97-5.24-1.23-1.96-2.83-2.74t-3.33-.78q-1.7 0-3.28.78-1.59.78-2.8 2.74-1.22 1.95-1.94 5.24-.72 3.3-.72 8.32 0 5.03.72 8.32.72 3.3 1.94 5.25 1.21 1.95 2.8 2.74 1.58.78 3.28.78 1.73 0 3.33-.78 1.6-.79 2.83-2.74t1.97-5.25q.73-3.29.73-8.32"/></svg>